<svg width="80" height="31" viewBox="0 0 80 31" fill="none" xmlns="http://www.w3.org/2000/svg">
<g filter="url(#filter0_d_2787_2690)">
<path d="M7.39773 21H4.375L8.30114 9.36364H12.0455L15.9716 21H12.9489L10.2159 12.2955H10.125L7.39773 21ZM6.99432 16.4205H13.3125V18.5568H6.99432V16.4205ZM17.2244 21V9.36364H20.0028V13.767H20.0597C20.1733 13.5019 20.3343 13.2462 20.5426 13C20.7547 12.7538 21.0237 12.553 21.3494 12.3977C21.679 12.2386 22.0729 12.1591 22.5312 12.1591C23.1373 12.1591 23.7036 12.3182 24.2301 12.6364C24.7604 12.9545 25.1884 13.4451 25.5142 14.108C25.84 14.7708 26.0028 15.6155 26.0028 16.642C26.0028 17.6307 25.8456 18.4583 25.5312 19.125C25.2206 19.7917 24.8002 20.2917 24.2699 20.625C23.7434 20.9583 23.1581 21.125 22.5142 21.125C22.0748 21.125 21.6941 21.053 21.3722 20.9091C21.0502 20.7652 20.7794 20.5758 20.5597 20.3409C20.3438 20.1061 20.1771 19.8542 20.0597 19.5852H19.9744V21H17.2244ZM19.946 16.6364C19.946 17.1061 20.0085 17.5152 20.1335 17.8636C20.2623 18.2121 20.446 18.483 20.6847 18.6761C20.9271 18.8655 21.2169 18.9602 21.554 18.9602C21.8949 18.9602 22.1847 18.8655 22.4233 18.6761C22.6619 18.483 22.8419 18.2121 22.9631 17.8636C23.0881 17.5152 23.1506 17.1061 23.1506 16.6364C23.1506 16.1667 23.0881 15.7595 22.9631 15.4148C22.8419 15.0701 22.6619 14.803 22.4233 14.6136C22.1884 14.4242 21.8987 14.3295 21.554 14.3295C21.2131 14.3295 20.9233 14.4223 20.6847 14.608C20.446 14.7936 20.2623 15.0587 20.1335 15.4034C20.0085 15.7481 19.946 16.1591 19.946 16.6364ZM31.5327 21.1648C30.616 21.1648 29.8281 20.9773 29.169 20.6023C28.5137 20.2235 28.008 19.697 27.652 19.0227C27.2997 18.3447 27.1236 17.5587 27.1236 16.6648C27.1236 15.767 27.2997 14.9811 27.652 14.3068C28.008 13.6288 28.5137 13.1023 29.169 12.7273C29.8281 12.3485 30.616 12.1591 31.5327 12.1591C32.4493 12.1591 33.2353 12.3485 33.8906 12.7273C34.5497 13.1023 35.0554 13.6288 35.4077 14.3068C35.7637 14.9811 35.9418 15.767 35.9418 16.6648C35.9418 17.5587 35.7637 18.3447 35.4077 19.0227C35.0554 19.697 34.5497 20.2235 33.8906 20.6023C33.2353 20.9773 32.4493 21.1648 31.5327 21.1648ZM31.5497 19.0682C31.883 19.0682 32.1652 18.9659 32.3963 18.7614C32.6274 18.5568 32.8035 18.2727 32.9247 17.9091C33.0497 17.5455 33.1122 17.125 33.1122 16.6477C33.1122 16.1629 33.0497 15.7386 32.9247 15.375C32.8035 15.0114 32.6274 14.7273 32.3963 14.5227C32.1652 14.3182 31.883 14.2159 31.5497 14.2159C31.205 14.2159 30.9134 14.3182 30.6747 14.5227C30.4399 14.7273 30.2599 15.0114 30.1349 15.375C30.0137 15.7386 29.9531 16.1629 29.9531 16.6477C29.9531 17.125 30.0137 17.5455 30.1349 17.9091C30.2599 18.2727 30.4399 18.5568 30.6747 18.7614C30.9134 18.9659 31.205 19.0682 31.5497 19.0682ZM42.9957 17.233V12.2727H45.7685V21H43.1207V19.375H43.0298C42.8366 19.9091 42.5071 20.3333 42.0412 20.6477C41.5791 20.9583 41.0204 21.1136 40.3651 21.1136C39.7704 21.1136 39.2476 20.9773 38.7969 20.7045C38.3461 20.4318 37.9957 20.0511 37.7457 19.5625C37.4957 19.0701 37.3688 18.4943 37.3651 17.8352V12.2727H40.1435V17.2898C40.1473 17.7633 40.2723 18.1364 40.5185 18.4091C40.7647 18.6818 41.0999 18.8182 41.5241 18.8182C41.8007 18.8182 42.0488 18.7576 42.2685 18.6364C42.492 18.5114 42.6681 18.3314 42.7969 18.0966C42.9295 17.858 42.9957 17.5701 42.9957 17.233ZM52.4631 12.2727V14.3182H46.9574V12.2727H52.4631ZM48.1108 10.1818H50.8892V18.2557C50.8892 18.4261 50.9157 18.5644 50.9688 18.6705C51.0256 18.7727 51.107 18.8466 51.2131 18.892C51.3191 18.9337 51.446 18.9545 51.5938 18.9545C51.6998 18.9545 51.8116 18.9451 51.929 18.9261C52.0502 18.9034 52.1411 18.8845 52.2017 18.8693L52.6222 20.875C52.4896 20.9129 52.3021 20.9602 52.0597 21.017C51.821 21.0739 51.535 21.1098 51.2017 21.125C50.5502 21.1553 49.9915 21.0795 49.5256 20.8977C49.0634 20.7121 48.7093 20.4242 48.4631 20.0341C48.2206 19.6439 48.1032 19.1534 48.1108 18.5625V10.1818ZM62.9489 17.233V12.2727H65.7216V21H63.0739V19.375H62.983C62.7898 19.9091 62.4602 20.3333 61.9943 20.6477C61.5322 20.9583 60.9735 21.1136 60.3182 21.1136C59.7235 21.1136 59.2008 20.9773 58.75 20.7045C58.2992 20.4318 57.9489 20.0511 57.6989 19.5625C57.4489 19.0701 57.322 18.4943 57.3182 17.8352V12.2727H60.0966V17.2898C60.1004 17.7633 60.2254 18.1364 60.4716 18.4091C60.7178 18.6818 61.053 18.8182 61.4773 18.8182C61.7538 18.8182 62.0019 18.7576 62.2216 18.6364C62.4451 18.5114 62.6212 18.3314 62.75 18.0966C62.8826 17.858 62.9489 17.5701 62.9489 17.233ZM75.1094 14.9375L72.5582 15.0057C72.5317 14.8239 72.4598 14.6629 72.3423 14.5227C72.2249 14.3788 72.0715 14.267 71.8821 14.1875C71.6965 14.1042 71.4806 14.0625 71.2344 14.0625C70.9124 14.0625 70.6378 14.1269 70.4105 14.2557C70.187 14.3845 70.0772 14.5587 70.081 14.7784C70.0772 14.9489 70.1454 15.0966 70.2855 15.2216C70.4295 15.3466 70.6851 15.447 71.0526 15.5227L72.7344 15.8409C73.6056 16.0076 74.2533 16.2841 74.6776 16.6705C75.1056 17.0568 75.3215 17.5682 75.3253 18.2045C75.3215 18.803 75.1435 19.3239 74.7912 19.767C74.4427 20.2102 73.9654 20.5549 73.3594 20.8011C72.7533 21.0436 72.0601 21.1648 71.2798 21.1648C70.0336 21.1648 69.0507 20.9091 68.331 20.3977C67.6151 19.8826 67.206 19.1932 67.1037 18.3295L69.848 18.2614C69.9086 18.5795 70.0658 18.822 70.3196 18.9886C70.5734 19.1553 70.8973 19.2386 71.2912 19.2386C71.6473 19.2386 71.937 19.1723 72.1605 19.0398C72.384 18.9072 72.4976 18.7311 72.5014 18.5114C72.4976 18.3144 72.4105 18.1572 72.2401 18.0398C72.0696 17.9186 71.8026 17.8239 71.4389 17.7557L69.9162 17.4659C69.0412 17.3068 68.3897 17.0133 67.9616 16.5852C67.5336 16.1534 67.3215 15.6042 67.3253 14.9375C67.3215 14.3542 67.4768 13.8561 67.7912 13.4432C68.1056 13.0265 68.5526 12.7083 69.1321 12.4886C69.7116 12.2689 70.3954 12.1591 71.1832 12.1591C72.3651 12.1591 73.2969 12.4072 73.9787 12.9034C74.6605 13.3958 75.0374 14.0739 75.1094 14.9375Z" fill="white"/>
</g>
<defs>
<filter id="filter0_d_2787_2690" x="0.375" y="9.36328" width="76.9503" height="19.8076" filterUnits="userSpaceOnUse" color-interpolation-filters="sRGB">
<feFlood flood-opacity="0" result="BackgroundImageFix"/>
<feColorMatrix in="SourceAlpha" type="matrix" values="0 0 0 0 0 0 0 0 0 0 0 0 0 0 0 0 0 0 127 0" result="hardAlpha"/>
<feOffset dx="-1" dy="5"/>
<feGaussianBlur stdDeviation="1.5"/>
<feComposite in2="hardAlpha" operator="out"/>
<feColorMatrix type="matrix" values="0 0 0 0 0 0 0 0 0 0 0 0 0 0 0 0 0 0 0.25 0"/>
<feBlend mode="normal" in2="BackgroundImageFix" result="effect1_dropShadow_2787_2690"/>
<feBlend mode="normal" in="SourceGraphic" in2="effect1_dropShadow_2787_2690" result="shape"/>
</filter>
</defs>
</svg>
