<svg width="328" height="104" viewBox="0 0 328 104" fill="none" xmlns="http://www.w3.org/2000/svg">
<g filter="url(#filter0_d_2787_1546)">
<path d="M33.5909 72H21.5L37.2045 25.4545H52.1818L67.8864 72H55.7955L44.8636 37.1818H44.5L33.5909 72ZM31.9773 53.6818H57.25V62.2273H31.9773V53.6818ZM72.8977 72V25.4545H84.0114V43.0682H84.2386C84.6932 42.0076 85.3371 40.9848 86.1705 40C87.0189 39.0152 88.0947 38.2121 89.3977 37.5909C90.7159 36.9545 92.2917 36.6364 94.125 36.6364C96.5492 36.6364 98.8144 37.2727 100.92 38.5455C103.042 39.8182 104.754 41.7803 106.057 44.4318C107.36 47.0833 108.011 50.4621 108.011 54.5682C108.011 58.5227 107.383 61.8333 106.125 64.5C104.883 67.1667 103.201 69.1667 101.08 70.5C98.9735 71.8333 96.6326 72.5 94.0568 72.5C92.2992 72.5 90.7765 72.2121 89.4886 71.6364C88.2008 71.0606 87.1174 70.303 86.2386 69.3636C85.375 68.4242 84.7083 67.4167 84.2386 66.3409H83.8977V72H72.8977ZM83.7841 54.5455C83.7841 56.4242 84.0341 58.0606 84.5341 59.4545C85.0492 60.8485 85.7841 61.9318 86.7386 62.7045C87.7083 63.4621 88.8674 63.8409 90.2159 63.8409C91.5795 63.8409 92.7386 63.4621 93.6932 62.7045C94.6477 61.9318 95.3674 60.8485 95.8523 59.4545C96.3523 58.0606 96.6023 56.4242 96.6023 54.5455C96.6023 52.6667 96.3523 51.0379 95.8523 49.6591C95.3674 48.2803 94.6477 47.2121 93.6932 46.4545C92.7538 45.697 91.5947 45.3182 90.2159 45.3182C88.8523 45.3182 87.6932 45.6894 86.7386 46.4318C85.7841 47.1742 85.0492 48.2348 84.5341 49.6136C84.0341 50.9924 83.7841 52.6364 83.7841 54.5455ZM130.131 72.6591C126.464 72.6591 123.313 71.9091 120.676 70.4091C118.055 68.8939 116.032 66.7879 114.608 64.0909C113.199 61.3788 112.494 58.2348 112.494 54.6591C112.494 51.0682 113.199 47.9242 114.608 45.2273C116.032 42.5152 118.055 40.4091 120.676 38.9091C123.313 37.3939 126.464 36.6364 130.131 36.6364C133.797 36.6364 136.941 37.3939 139.562 38.9091C142.199 40.4091 144.222 42.5152 145.631 45.2273C147.055 47.9242 147.767 51.0682 147.767 54.6591C147.767 58.2348 147.055 61.3788 145.631 64.0909C144.222 66.7879 142.199 68.8939 139.562 70.4091C136.941 71.9091 133.797 72.6591 130.131 72.6591ZM130.199 64.2727C131.532 64.2727 132.661 63.8636 133.585 63.0455C134.509 62.2273 135.214 61.0909 135.699 59.6364C136.199 58.1818 136.449 56.5 136.449 54.5909C136.449 52.6515 136.199 50.9545 135.699 49.5C135.214 48.0455 134.509 46.9091 133.585 46.0909C132.661 45.2727 131.532 44.8636 130.199 44.8636C128.82 44.8636 127.653 45.2727 126.699 46.0909C125.759 46.9091 125.04 48.0455 124.54 49.5C124.055 50.9545 123.812 52.6515 123.812 54.5909C123.812 56.5 124.055 58.1818 124.54 59.6364C125.04 61.0909 125.759 62.2273 126.699 63.0455C127.653 63.8636 128.82 64.2727 130.199 64.2727ZM175.983 56.9318V37.0909H187.074V72H176.483V65.5H176.119C175.347 67.6364 174.028 69.3333 172.165 70.5909C170.316 71.8333 168.081 72.4545 165.46 72.4545C163.081 72.4545 160.991 71.9091 159.188 70.8182C157.384 69.7273 155.983 68.2045 154.983 66.25C153.983 64.2803 153.475 61.9773 153.46 59.3409V37.0909H164.574V57.1591C164.589 59.053 165.089 60.5455 166.074 61.6364C167.059 62.7273 168.4 63.2727 170.097 63.2727C171.203 63.2727 172.195 63.0303 173.074 62.5455C173.968 62.0455 174.672 61.3258 175.188 60.3864C175.718 59.4318 175.983 58.2803 175.983 56.9318ZM213.852 37.0909V45.2727H191.83V37.0909H213.852ZM196.443 28.7273H207.557V61.0227C207.557 61.7045 207.663 62.2576 207.875 62.6818C208.102 63.0909 208.428 63.3864 208.852 63.5682C209.277 63.7348 209.784 63.8182 210.375 63.8182C210.799 63.8182 211.246 63.7803 211.716 63.7045C212.201 63.6136 212.564 63.5379 212.807 63.4773L214.489 71.5C213.958 71.6515 213.208 71.8409 212.239 72.0682C211.284 72.2955 210.14 72.4394 208.807 72.5C206.201 72.6212 203.966 72.3182 202.102 71.5909C200.254 70.8485 198.837 69.697 197.852 68.1364C196.883 66.5758 196.413 64.6136 196.443 62.25V28.7273ZM255.795 56.9318V37.0909H266.886V72H256.295V65.5H255.932C255.159 67.6364 253.841 69.3333 251.977 70.5909C250.129 71.8333 247.894 72.4545 245.273 72.4545C242.894 72.4545 240.803 71.9091 239 70.8182C237.197 69.7273 235.795 68.2045 234.795 66.25C233.795 64.2803 233.288 61.9773 233.273 59.3409V37.0909H244.386V57.1591C244.402 59.053 244.902 60.5455 245.886 61.6364C246.871 62.7273 248.212 63.2727 249.909 63.2727C251.015 63.2727 252.008 63.0303 252.886 62.5455C253.78 62.0455 254.485 61.3258 255 60.3864C255.53 59.4318 255.795 58.2803 255.795 56.9318ZM304.438 47.75L294.233 48.0227C294.127 47.2955 293.839 46.6515 293.369 46.0909C292.9 45.5152 292.286 45.0682 291.528 44.75C290.786 44.4167 289.922 44.25 288.938 44.25C287.65 44.25 286.551 44.5076 285.642 45.0227C284.748 45.5379 284.309 46.2348 284.324 47.1136C284.309 47.7955 284.581 48.3864 285.142 48.8864C285.718 49.3864 286.741 49.7879 288.21 50.0909L294.938 51.3636C298.422 52.0303 301.013 53.1364 302.71 54.6818C304.422 56.2273 305.286 58.2727 305.301 60.8182C305.286 63.2121 304.574 65.2955 303.165 67.0682C301.771 68.8409 299.862 70.2197 297.438 71.2045C295.013 72.1742 292.241 72.6591 289.119 72.6591C284.134 72.6591 280.203 71.6364 277.324 69.5909C274.46 67.5303 272.824 64.7727 272.415 61.3182L283.392 61.0455C283.634 62.3182 284.263 63.2879 285.278 63.9545C286.294 64.6212 287.589 64.9545 289.165 64.9545C290.589 64.9545 291.748 64.6894 292.642 64.1591C293.536 63.6288 293.991 62.9242 294.006 62.0455C293.991 61.2576 293.642 60.6288 292.96 60.1591C292.278 59.6742 291.21 59.2955 289.756 59.0227L283.665 57.8636C280.165 57.2273 277.559 56.053 275.847 54.3409C274.134 52.6136 273.286 50.4167 273.301 47.75C273.286 45.4167 273.907 43.4242 275.165 41.7727C276.422 40.1061 278.21 38.8333 280.528 37.9545C282.847 37.0758 285.581 36.6364 288.733 36.6364C293.46 36.6364 297.188 37.6288 299.915 39.6136C302.642 41.5833 304.15 44.2955 304.438 47.75Z" fill="white"/>
</g>
<defs>
<filter id="filter0_d_2787_1546" x="7.5" y="25.4551" width="299.801" height="78.2266" filterUnits="userSpaceOnUse" color-interpolation-filters="sRGB">
<feFlood flood-opacity="0" result="BackgroundImageFix"/>
<feColorMatrix in="SourceAlpha" type="matrix" values="0 0 0 0 0 0 0 0 0 0 0 0 0 0 0 0 0 0 127 0" result="hardAlpha"/>
<feOffset dx="-6" dy="23"/>
<feGaussianBlur stdDeviation="4"/>
<feComposite in2="hardAlpha" operator="out"/>
<feColorMatrix type="matrix" values="0 0 0 0 0 0 0 0 0 0 0 0 0 0 0 0 0 0 0.25 0"/>
<feBlend mode="normal" in2="BackgroundImageFix" result="effect1_dropShadow_2787_1546"/>
<feBlend mode="normal" in="SourceGraphic" in2="effect1_dropShadow_2787_1546" result="shape"/>
</filter>
</defs>
</svg>
