<svg width="51" height="50" viewBox="0 0 51 50" fill="none" xmlns="http://www.w3.org/2000/svg">
<path d="M13.3789 15.1094L15.8691 23.4082M26.8203 34.3633L35.123 36.8535" stroke="black" stroke-width="2" stroke-linecap="round" stroke-linejoin="round"/>
<path d="M24.6133 25.6191L35.8613 14.3711" stroke="black" stroke-width="2" stroke-linecap="round" stroke-linejoin="round"/>
<path d="M9.60742 12.3047C9.60742 13.0817 9.91608 13.8269 10.4655 14.3763C11.0149 14.9257 11.7601 15.2344 12.5371 15.2344C13.3141 15.2344 14.0593 14.9257 14.6087 14.3763C15.1581 13.8269 15.4668 13.0817 15.4668 12.3047C15.4668 11.5277 15.1581 10.7825 14.6087 10.2331C14.0593 9.68366 13.3141 9.375 12.5371 9.375C11.7601 9.375 11.0149 9.68366 10.4655 10.2331C9.91608 10.7825 9.60742 11.5277 9.60742 12.3047Z" stroke="black" stroke-width="2" stroke-linecap="round" stroke-linejoin="round"/>
<path d="M34.998 12.3047C34.998 13.0817 35.3067 13.8269 35.8561 14.3763C36.4056 14.9257 37.1507 15.2344 37.9277 15.2344C38.7047 15.2344 39.4499 14.9257 39.9993 14.3763C40.5488 13.8269 40.8574 13.0817 40.8574 12.3047C40.8574 11.5277 40.5488 10.7825 39.9993 10.2331C39.4499 9.68366 38.7047 9.375 37.9277 9.375C37.1507 9.375 36.4056 9.68366 35.8561 10.2331C35.3067 10.7825 34.998 11.5277 34.998 12.3047Z" stroke="black" stroke-width="2" stroke-linecap="round" stroke-linejoin="round"/>
<path d="M34.998 37.6953C34.998 38.4723 35.3067 39.2175 35.8561 39.7669C36.4056 40.3163 37.1507 40.625 37.9277 40.625C38.7047 40.625 39.4499 40.3163 39.9993 39.7669C40.5488 39.2175 40.8574 38.4723 40.8574 37.6953C40.8574 36.9183 40.5488 36.1731 39.9993 35.6237C39.4499 35.0743 38.7047 34.7656 37.9277 34.7656C37.1507 34.7656 36.4056 35.0743 35.8561 35.6237C35.3067 36.1731 34.998 36.9183 34.998 37.6953Z" stroke="black" stroke-width="2" stroke-linecap="round" stroke-linejoin="round"/>
<path d="M9.60742 31.8359C9.60742 34.1669 10.5334 36.4025 12.1817 38.0507C13.8299 39.699 16.0655 40.625 18.3965 40.625C20.7275 40.625 22.963 39.699 24.6113 38.0507C26.2596 36.4025 27.1855 34.1669 27.1855 31.8359C27.1855 29.5049 26.2596 27.2694 24.6113 25.6211C22.963 23.9729 20.7275 23.0469 18.3965 23.0469C16.0655 23.0469 13.8299 23.9729 12.1817 25.6211C10.5334 27.2694 9.60742 29.5049 9.60742 31.8359Z" stroke="black" stroke-width="2" stroke-linecap="round" stroke-linejoin="round"/>
</svg>
