<svg width="101" height="100" viewBox="0 0 101 100" fill="none" xmlns="http://www.w3.org/2000/svg">
<rect x="1.375" y="1" width="98" height="98" rx="49" stroke="black" stroke-width="2"/>
<path d="M30.4443 29.9453V36.5886" stroke="black" stroke-width="4" stroke-linecap="round" stroke-linejoin="round"/>
<path d="M49.8428 29.9453V36.5886" stroke="black" stroke-width="4" stroke-linecap="round" stroke-linejoin="round"/>
<path d="M40.1436 25V31.6433" stroke="black" stroke-width="4" stroke-linecap="round" stroke-linejoin="round"/>
<path d="M69.8389 39.9637C69.8389 40.4969 69.9439 41.0249 70.1479 41.5176C70.352 42.0102 70.6511 42.4578 71.0281 42.8349C71.4052 43.2119 71.8528 43.511 72.3454 43.715C72.838 43.9191 73.366 44.0241 73.8993 44.0241C74.4325 44.0241 74.9605 43.9191 75.4531 43.715C75.9457 43.511 76.3934 43.2119 76.7704 42.8349C77.1474 42.4578 77.4465 42.0102 77.6506 41.5176C77.8546 41.0249 77.9597 40.4969 77.9597 39.9637C77.9597 39.4305 77.8546 38.9025 77.6506 38.4099C77.4465 37.9172 77.1474 37.4696 76.7704 37.0926C76.3934 36.7155 75.9457 36.4165 75.4531 36.2124C74.9605 36.0083 74.4325 35.9033 73.8993 35.9033C73.366 35.9033 72.838 36.0083 72.3454 36.2124C71.8528 36.4165 71.4052 36.7155 71.0281 37.0926C70.6511 37.4696 70.352 37.9172 70.1479 38.4099C69.9439 38.9025 69.8389 39.4305 69.8389 39.9637Z" stroke="black" stroke-width="4" stroke-linecap="round"/>
<path d="M67.0002 57.2888L67.9016 57.6834C74.1899 60.6642 75.931 64.5113 75.931 69.8052V71.0671C75.931 73.4153 74.0275 75.3188 71.6793 75.3188H27.8779C26.4892 75.3188 25.1807 74.6364 24.6489 73.3537C23.4689 70.508 22.1012 64.7924 25.6606 57.6837C30.8039 47.4113 43.4627 45.1553 51.5676 49.4087L51.9537 49.6034" stroke="black" stroke-width="4" stroke-linecap="round" stroke-linejoin="round"/>
<path d="M64.0962 62.9405C68.0393 58.6103 68.2438 52.3758 64.5533 49.0157C60.8631 45.6556 54.6751 46.4421 50.7322 50.7725C47.1527 54.7038 46.6541 60.2042 49.3537 63.699C49.6278 64.0536 49.9348 64.3878 50.275 64.6973" stroke="black" stroke-width="4" stroke-linecap="round"/>
<path d="M71.1006 42.916L64.7881 49.2287" stroke="black" stroke-width="4" stroke-linecap="round" stroke-linejoin="round"/>
</svg>
