<svg width="184" height="163" viewBox="0 0 184 163" fill="none" xmlns="http://www.w3.org/2000/svg">
<path d="M113.37 96.1267C130.378 92.4886 140.698 88.8387 160.83 78.9173C192.805 61.9764 172.032 3.09378 126.509 30.9927C105.116 -17.9402 58.4104 20.9613 75.0651 53.3693" stroke="white" stroke-width="4" stroke-linecap="round" stroke-linejoin="round"/>
<path d="M74.1245 150.478L18.9384 118.212C-11.5704 98.2908 14.6973 41.7468 57.4992 73.6805C83.2736 26.9596 130.458 67.8416 111.041 98.3517L74.1245 150.478Z" stroke="white" stroke-width="4" stroke-linecap="round" stroke-linejoin="round"/>
<path d="M29.168 48.292H41.3069" stroke="white" stroke-width="3" stroke-linecap="round"/>
<path d="M46.5098 27.0293C46.5098 30.9919 47.3768 34.7772 47.3768 38.5462" stroke="white" stroke-width="3" stroke-linecap="round"/>
<path d="M32.6367 33.2305C35.4257 35.7951 38.7582 37.7664 40.4403 41.2037" stroke="white" stroke-width="3" stroke-linecap="round"/>
<path d="M132.375 131.545L130.792 119.248" stroke="white" stroke-width="3" stroke-linecap="round"/>
<path d="M150.745 111.204C146.9 111.721 143.114 111.336 139.456 111.828" stroke="white" stroke-width="3" stroke-linecap="round"/>
<path d="M146.537 126.066C143.685 123.576 141.337 120.457 137.782 119.201" stroke="white" stroke-width="3" stroke-linecap="round"/>
</svg>
