<svg width="25" height="25" viewBox="0 0 25 25" fill="none" xmlns="http://www.w3.org/2000/svg">
<g clip-path="url(#clip0_2787_1972)">
<path d="M19.5 0.5H5.5C2.739 0.5 0.5 2.739 0.5 5.5V19.5C0.5 22.261 2.739 24.5 5.5 24.5H19.5C22.262 24.5 24.5 22.261 24.5 19.5V5.5C24.5 2.739 22.262 0.5 19.5 0.5ZM8.5 19.5H5.5V8.5H8.5V19.5ZM7 7.232C6.034 7.232 5.25 6.442 5.25 5.468C5.25 4.494 6.034 3.704 7 3.704C7.966 3.704 8.75 4.494 8.75 5.468C8.75 6.442 7.967 7.232 7 7.232ZM20.5 19.5H17.5V13.896C17.5 10.528 13.5 10.783 13.5 13.896V19.5H10.5V8.5H13.5V10.265C14.896 7.679 20.5 7.488 20.5 12.741V19.5Z" fill="white"/>
</g>
<defs>
<clipPath id="clip0_2787_1972">
<rect width="24" height="24" fill="white" transform="translate(0.5 0.5)"/>
</clipPath>
</defs>
</svg>
