<svg width="101" height="100" viewBox="0 0 101 100" fill="none" xmlns="http://www.w3.org/2000/svg">
<rect x="1.125" y="1" width="98" height="98" rx="49" stroke="black" stroke-width="2"/>
<path d="M59.9711 28.8467H65.7404C66.7604 28.8467 67.7388 29.2519 68.46 29.9732C69.1811 30.6945 69.5865 31.6728 69.5865 32.6928V71.1543C69.5865 72.1743 69.1811 73.1528 68.46 73.874C67.7388 74.5951 66.7604 75.0005 65.7404 75.0005H34.9712C33.9511 75.0005 32.9728 74.5951 32.2515 73.874C31.5302 73.1528 31.125 72.1743 31.125 71.1543V32.6928C31.125 31.6728 31.5302 30.6945 32.2515 29.9732C32.9728 29.2519 33.9511 28.8467 34.9712 28.8467H40.7404" stroke="black" stroke-width="4" stroke-linecap="round" stroke-linejoin="round"/>
<path d="M56.1248 25H44.5864C42.4622 25 40.7402 26.722 40.7402 28.8462V30.7692C40.7402 32.8934 42.4622 34.6154 44.5864 34.6154H56.1248C58.249 34.6154 59.971 32.8934 59.971 30.7692V28.8462C59.971 26.722 58.249 25 56.1248 25Z" stroke="black" stroke-width="4" stroke-linecap="round" stroke-linejoin="round"/>
<path d="M47.6743 43.1152C46.7622 43.1152 46.0228 43.8546 46.0228 44.7667V49.4116H41.378C40.4659 49.4116 39.7266 50.151 39.7266 51.063V56.4303C39.7266 57.3424 40.4659 58.0818 41.378 58.0818H46.0228V62.7265C46.0228 63.6385 46.7622 64.3781 47.6743 64.3781H53.0416C53.9537 64.3781 54.6931 63.6385 54.6931 62.7265V58.0818H59.3378C60.2499 58.0818 60.9893 57.3425 60.9893 56.4303V51.063C60.9893 50.151 60.2499 49.4116 59.3378 49.4116H54.6931V44.7667C54.6931 43.8546 53.9537 43.1152 53.0416 43.1152H47.6743Z" stroke="black" stroke-width="4" stroke-linecap="round" stroke-linejoin="round"/>
</svg>
