<svg width="106" height="104" viewBox="0 0 106 104" fill="none" xmlns="http://www.w3.org/2000/svg">
<rect x="1.375" y="1" width="103" height="102" rx="51" stroke="black" stroke-width="2"/>
<path d="M53.0591 81.4597C45.9192 74.3045 36.2363 69.6703 25.7134 68.3712C24.5156 68.2505 23.4094 67.7301 22.6083 66.9111C21.8071 66.0916 21.3678 65.0312 21.3751 63.9344V28.2185C21.375 27.5776 21.5275 26.9444 21.822 26.3622C22.1165 25.7802 22.5461 25.2631 23.0812 24.8465C23.6068 24.4375 24.222 24.135 24.8859 23.9591C25.5498 23.7832 26.2473 23.7378 26.932 23.8261C36.9943 25.3461 46.1994 29.9105 53.0591 36.7814V81.4597Z" stroke="black" stroke-width="4" stroke-linecap="round" stroke-linejoin="round"/>
<path d="M53.0586 81.4597C60.1985 74.3045 69.8813 69.6703 80.4043 68.3712C81.602 68.2505 82.7085 67.7301 83.5094 66.9111C84.3107 66.0916 84.7499 65.0312 84.7426 63.9344V28.2185C84.7426 27.5776 84.59 26.9444 84.2956 26.3622C84.0012 25.7802 83.5718 25.2631 83.0366 24.8465C82.5111 24.4375 81.8959 24.135 81.232 23.9591C80.5676 23.7832 79.8706 23.7378 79.1857 23.8261C69.1234 25.3461 59.9183 29.9105 53.0586 36.7814V81.4597Z" stroke="black" stroke-width="4" stroke-linecap="round" stroke-linejoin="round"/>
</svg>
