<svg width="115" height="120" viewBox="0 0 115 120" fill="none" xmlns="http://www.w3.org/2000/svg">
<path d="M2 60.2285C10.7942 61.4061 18.4931 68.6066 24.9045 74.434C35.3073 83.8889 43.8397 94.8219 53.2303 105.236C61.1017 113.965 73.0488 115.687 83.7245 118.457" stroke="white" stroke-width="3" stroke-linecap="round"/>
<path d="M15.417 43.7715C26.773 45.7356 37.9252 58.2977 44.8947 66.9081C50.2421 73.5144 55.6844 80.689 59.0576 88.6382C60.4743 91.9768 60.9243 98.9329 64.2077 101.015C69.4168 104.319 80.6065 104.39 83.724 110.861" stroke="white" stroke-width="3" stroke-linecap="round"/>
<path d="M28.835 29.8477C40.7952 41.1312 53.693 53.0649 62.0398 67.682C66.469 75.4386 69.8522 83.9251 74.6441 91.4515C75.725 93.1493 77.6238 93.8952 78.5744 95.6709C81.1471 100.477 88.6036 101.824 88.6036 107.063" stroke="white" stroke-width="3" stroke-linecap="round"/>
<path d="M44.6914 17.1895C53.2503 30.8086 63.3042 41.1375 74.1014 52.7734C82.0625 61.353 80.7626 72.1039 86.7734 81.114C89.5599 85.2909 95.9217 90.3118 95.9217 95.6711" stroke="white" stroke-width="3" stroke-linecap="round"/>
<path d="M112.999 93.1399C106.799 82.6415 105.983 70.6986 100.666 60.0877C91.2385 41.2734 74.5395 27.1373 61.4977 11.1421C59.2256 8.35546 57.1604 5.09361 55.6699 2" stroke="white" stroke-width="3" stroke-linecap="round"/>
</svg>
