<svg width="103" height="100" viewBox="0 0 103 100" fill="none" xmlns="http://www.w3.org/2000/svg">
<rect x="1.5293" y="1" width="100.19" height="98" rx="49" stroke="black" stroke-width="2"/>
<path d="M54.0003 46.7943H33.9015C33.6291 47.5406 33.2626 48.2202 32.8018 48.8331C32.341 49.446 31.7817 49.9657 31.1237 50.3921L33.7381 77.9752H54.1637L56.7781 50.3921C56.1245 49.9657 55.5662 49.446 55.1033 48.8331C54.6403 48.2202 54.2727 47.5406 54.0003 46.7943ZM33.0028 33.2027L31.6139 38.7193C32.1041 39.1458 32.5399 39.6387 32.9211 40.1984C33.3023 40.758 33.602 41.3577 33.8198 41.9973H54.1294C54.3821 41.3881 54.6825 40.8095 55.0305 40.2615C55.3786 39.7131 55.7977 39.2257 56.2879 38.7992L54.899 33.2027H33.0028ZM33.7381 82.7722C32.4664 82.7722 31.3585 82.3458 30.4145 81.493C29.4712 80.6403 28.945 79.6009 28.836 78.3749L26.1398 49.1929C26.0854 48.7191 26.1807 48.2809 26.4258 47.8785C26.6709 47.4755 27.0113 47.1408 27.4471 46.8743L27.5288 46.7943C27.9646 46.5278 28.3458 46.208 28.6726 45.8349C28.9994 45.4619 29.1628 45.0087 29.1628 44.4758C29.1628 43.996 29.0538 43.543 28.836 43.1166C28.6182 42.6901 28.2914 42.3703 27.8556 42.1572L27.6922 42.0772C27.202 41.8107 26.8479 41.4244 26.63 40.9179C26.4122 40.4115 26.3577 39.8919 26.4666 39.3589L28.7543 30.2445C28.8633 29.7115 29.1424 29.2718 29.5918 28.9253C30.0411 28.5788 30.5517 28.4056 31.1237 28.4056H41.4998V23.6086H36.5977V18.8115H51.3041V23.6086H46.402V28.4056H56.7781C57.3664 28.4056 57.8811 28.5788 58.3223 28.9253C58.7635 29.2718 59.0385 29.7115 59.1475 30.2445L61.3535 39.199C61.4625 39.732 61.4079 40.2516 61.1901 40.758C60.9722 41.2644 60.6181 41.6508 60.1279 41.9173L59.9645 41.9973C59.5287 42.2104 59.2019 42.5302 58.9841 42.9567C58.7663 43.3831 58.6573 43.8293 58.6573 44.2951C58.6573 44.8648 58.8071 45.3437 59.1067 45.7318C59.4062 46.1203 59.7925 46.4381 60.2652 46.6848C60.7379 46.9315 61.1056 47.2648 61.3682 47.6842C61.6308 48.1036 61.7347 48.58 61.6803 49.1129L59.0658 78.3749C58.9433 79.6201 58.4122 80.6642 57.4726 81.5074C56.533 82.3506 55.4301 82.7722 54.1637 82.7722H33.7381Z" fill="black"/>
</svg>
