<svg width="40" height="40" viewBox="0 0 40 40" fill="none" xmlns="http://www.w3.org/2000/svg">
<path d="M20.2327 0C7.71939 4.57667 -1.24228 18.8533 1.06939 33.2717C1.06939 33.2717 8.54772 40 20.2327 40C31.9161 40 39.3927 33.2717 39.3927 33.2717C41.7027 18.8533 32.7461 4.57667 20.2327 0ZM20.2327 3.07667C20.2327 3.07667 23.6194 4.28667 26.8077 7.22333C26.9294 7.335 27.0244 7.495 27.0227 7.685C27.0211 7.965 26.8094 8.16333 26.5211 8.16333C26.4432 8.15917 26.3663 8.14402 26.2927 8.11833C25.0569 7.66473 23.7491 7.43886 22.4327 7.45167C20.0882 7.44838 17.8034 8.19147 15.9094 9.57333L15.9061 9.57667C17.7737 8.93388 19.7611 8.71525 21.7238 8.93666C23.6865 9.15807 25.5752 9.81396 27.2527 10.8567C34.3661 15.1833 37.8944 23.6317 36.7361 31.6667C36.7361 31.6667 33.9927 33.9933 29.8544 35.2867C29.772 35.3157 29.6843 35.3269 29.5972 35.3194C29.5101 35.312 29.4257 35.286 29.3494 35.2433C29.1094 35.1033 29.0411 34.8183 29.1827 34.57C29.2265 34.5056 29.2793 34.4478 29.3394 34.3983C30.3497 33.5525 31.1989 32.5311 31.8461 31.3833C33.0216 29.3541 33.5212 27.0036 33.2727 24.6717L33.2694 24.6683C32.9094 26.5352 32.1517 28.3027 31.048 29.8507C29.9443 31.3988 28.5203 32.6911 26.8727 33.64C19.5061 37.8933 10.2227 36.7767 3.73106 31.6667C3.73106 31.6667 3.08439 28.1267 4.03439 23.8967C4.05107 23.8104 4.08584 23.7287 4.1364 23.6569C4.18696 23.5851 4.25217 23.5248 4.32772 23.48C4.56939 23.34 4.84439 23.425 4.98772 23.675C5.02373 23.7429 5.04903 23.816 5.06272 23.8917C5.27272 25.1617 5.73772 26.3917 6.41939 27.5717C7.58892 29.6045 9.37431 31.2131 11.5177 32.165C10.4072 31.198 9.46547 30.0529 8.73106 28.7767C7.49879 26.6512 6.88353 24.2242 6.95439 21.7683C7.11272 13.4117 12.6727 6.09833 20.2327 3.07667ZM20.2327 15.7817C15.6894 15.7817 11.7044 17.3317 9.42772 19.6683C9.32106 20.2017 9.26105 20.7517 9.26105 21.3083C9.26105 26.5517 14.1727 30.8 20.2327 30.8C26.2911 30.8 31.2061 26.5517 31.2061 21.3083C31.2061 20.7517 31.1427 20.2017 31.0361 19.6683C28.7594 17.3333 24.7727 15.7817 20.2327 15.7817ZM20.2327 16.9367C21.5886 16.971 22.8774 17.5338 23.8243 18.5049C24.7711 19.476 25.3011 20.7787 25.3011 22.135C25.3011 23.4913 24.7711 24.794 23.8243 25.7651C22.8774 26.7362 21.5886 27.299 20.2327 27.3333C19.3741 27.3338 18.5287 27.1215 17.7722 26.7155C17.0156 26.3094 16.3715 25.7222 15.8973 25.0063C15.4232 24.2905 15.1338 23.4683 15.0551 22.6133C14.9763 21.7583 15.1106 20.8971 15.4461 20.1067C15.5671 20.4527 15.7739 20.7624 16.0472 21.0067C16.3205 21.251 16.6513 21.422 17.0086 21.5037C17.366 21.5853 17.7382 21.575 18.0905 21.4736C18.4428 21.3722 18.7636 21.1831 19.0229 20.924C19.2822 20.6648 19.4715 20.3442 19.5731 19.9919C19.6747 19.6397 19.6852 19.2675 19.6038 18.9101C19.5223 18.5527 19.3515 18.2218 19.1074 17.9483C18.8632 17.6749 18.5537 17.4679 18.2077 17.3467C18.8483 17.0754 19.537 16.936 20.2327 16.9367Z" fill="black"/>
</svg>
