<svg width="24" height="24" viewBox="0 0 24 24" fill="none" xmlns="http://www.w3.org/2000/svg">
<path d="M14.7894 21.5247C15.7679 22.1558 16.9338 22.4309 18.0912 22.3037C19.2486 22.1763 20.3269 21.6544 21.1447 20.8256L21.8597 20.1265C22.1731 19.8058 22.3486 19.3753 22.3486 18.9269C22.3486 18.4786 22.1731 18.0479 21.8597 17.7274L18.825 14.7245C18.5071 14.4121 18.0792 14.237 17.6334 14.237C17.1877 14.237 16.7597 14.4121 16.4418 14.7245C16.1212 15.038 15.6906 15.2135 15.2422 15.2135C14.7939 15.2135 14.3633 15.038 14.0427 14.7245L9.27622 9.95803C9.11721 9.80133 8.99094 9.61459 8.90475 9.40866C8.81857 9.20274 8.77418 8.98172 8.77418 8.75848C8.77418 8.53523 8.81857 8.31423 8.90475 8.10828C8.99094 7.90235 9.11721 7.71561 9.27622 7.55891C9.58866 7.24099 9.76373 6.81306 9.76373 6.36731C9.76373 5.92154 9.58866 5.49362 9.27622 5.17568L6.25748 2.15692C5.93682 1.84347 5.50631 1.66797 5.05796 1.66797C4.60946 1.66797 4.17894 1.84347 3.85828 2.15692L3.15917 2.8719C2.33046 3.68972 1.80856 4.768 1.68119 5.92539C1.55382 7.0828 1.82894 8.24874 2.46022 9.22718C5.74911 14.0742 9.93388 18.2482 14.7894 21.5247Z" stroke="white" stroke-width="1.71" stroke-linecap="round" stroke-linejoin="round"/>
</svg>
