<svg width="387" height="97" viewBox="0 0 387 97" fill="none" xmlns="http://www.w3.org/2000/svg">
<g filter="url(#filter0_d_2787_1282)">
<path d="M65.7727 42.3182H54.4091C54.2576 41.1515 53.947 40.0985 53.4773 39.1591C53.0076 38.2197 52.3864 37.4167 51.6136 36.75C50.8409 36.0833 49.9242 35.5758 48.8636 35.2273C47.8182 34.8636 46.6591 34.6818 45.3864 34.6818C43.1288 34.6818 41.1818 35.2348 39.5455 36.3409C37.9242 37.447 36.6742 39.0455 35.7955 41.1364C34.9318 43.2273 34.5 45.7576 34.5 48.7273C34.5 51.8182 34.9394 54.4091 35.8182 56.5C36.7121 58.5758 37.9621 60.1439 39.5682 61.2045C41.1894 62.25 43.1061 62.7727 45.3182 62.7727C46.5606 62.7727 47.6894 62.6136 48.7045 62.2955C49.7348 61.9773 50.6364 61.5152 51.4091 60.9091C52.197 60.2879 52.8409 59.5379 53.3409 58.6591C53.8561 57.7652 54.2121 56.7576 54.4091 55.6364L65.7727 55.7045C65.5758 57.7652 64.9773 59.7955 63.9773 61.7955C62.9924 63.7955 61.6364 65.6212 59.9091 67.2727C58.1818 68.9091 56.0758 70.2121 53.5909 71.1818C51.1212 72.1515 48.2879 72.6364 45.0909 72.6364C40.8788 72.6364 37.1061 71.7121 33.7727 69.8636C30.4545 68 27.8333 65.2879 25.9091 61.7273C23.9848 58.1667 23.0227 53.8333 23.0227 48.7273C23.0227 43.6061 24 39.2652 25.9545 35.7045C27.9091 32.1439 30.553 29.4394 33.8864 27.5909C37.2197 25.7424 40.9545 24.8182 45.0909 24.8182C47.9091 24.8182 50.5152 25.2121 52.9091 26C55.303 26.7727 57.4091 27.9091 59.2273 29.4091C61.0455 30.8939 62.5227 32.7197 63.6591 34.8864C64.7955 37.053 65.5 39.5303 65.7727 42.3182ZM88.5057 72.6591C84.839 72.6591 81.6875 71.9091 79.0511 70.4091C76.4299 68.8939 74.4072 66.7879 72.983 64.0909C71.5739 61.3788 70.8693 58.2348 70.8693 54.6591C70.8693 51.0682 71.5739 47.9242 72.983 45.2273C74.4072 42.5152 76.4299 40.4091 79.0511 38.9091C81.6875 37.3939 84.839 36.6364 88.5057 36.6364C92.1723 36.6364 95.3163 37.3939 97.9375 38.9091C100.574 40.4091 102.597 42.5152 104.006 45.2273C105.43 47.9242 106.142 51.0682 106.142 54.6591C106.142 58.2348 105.43 61.3788 104.006 64.0909C102.597 66.7879 100.574 68.8939 97.9375 70.4091C95.3163 71.9091 92.1723 72.6591 88.5057 72.6591ZM88.5739 64.2727C89.9072 64.2727 91.036 63.8636 91.9602 63.0455C92.8845 62.2273 93.589 61.0909 94.0739 59.6364C94.5739 58.1818 94.8239 56.5 94.8239 54.5909C94.8239 52.6515 94.5739 50.9545 94.0739 49.5C93.589 48.0455 92.8845 46.9091 91.9602 46.0909C91.036 45.2727 89.9072 44.8636 88.5739 44.8636C87.1951 44.8636 86.0284 45.2727 85.0739 46.0909C84.1345 46.9091 83.4148 48.0455 82.9148 49.5C82.4299 50.9545 82.1875 52.6515 82.1875 54.5909C82.1875 56.5 82.4299 58.1818 82.9148 59.6364C83.4148 61.0909 84.1345 62.2273 85.0739 63.0455C86.0284 63.8636 87.1951 64.2727 88.5739 64.2727ZM122.949 52.0909V72H111.835V37.0909H122.403V43.5H122.79C123.563 41.3636 124.881 39.6894 126.744 38.4773C128.608 37.25 130.828 36.6364 133.403 36.6364C135.858 36.6364 137.987 37.1894 139.79 38.2955C141.608 39.3864 143.017 40.9167 144.017 42.8864C145.032 44.8409 145.532 47.1288 145.517 49.75V72H134.403V51.9318C134.419 49.9924 133.926 48.4773 132.926 47.3864C131.941 46.2955 130.57 45.75 128.812 45.75C127.646 45.75 126.616 46.0076 125.722 46.5227C124.843 47.0227 124.161 47.7424 123.676 48.6818C123.206 49.6212 122.964 50.7576 122.949 52.0909ZM172.102 37.0909V45.2727H150.08V37.0909H172.102ZM154.693 28.7273H165.807V61.0227C165.807 61.7045 165.913 62.2576 166.125 62.6818C166.352 63.0909 166.678 63.3864 167.102 63.5682C167.527 63.7348 168.034 63.8182 168.625 63.8182C169.049 63.8182 169.496 63.7803 169.966 63.7045C170.451 63.6136 170.814 63.5379 171.057 63.4773L172.739 71.5C172.208 71.6515 171.458 71.8409 170.489 72.0682C169.534 72.2955 168.39 72.4394 167.057 72.5C164.451 72.6212 162.216 72.3182 160.352 71.5909C158.504 70.8485 157.087 69.697 156.102 68.1364C155.133 66.5758 154.663 64.6136 154.693 62.25V28.7273ZM187.614 72.5909C185.386 72.5909 183.409 72.2197 181.682 71.4773C179.97 70.7197 178.614 69.5833 177.614 68.0682C176.629 66.5379 176.136 64.6212 176.136 62.3182C176.136 60.3788 176.477 58.7424 177.159 57.4091C177.841 56.0758 178.78 54.9924 179.977 54.1591C181.174 53.3258 182.553 52.697 184.114 52.2727C185.674 51.8333 187.341 51.5379 189.114 51.3864C191.098 51.2045 192.697 51.0152 193.909 50.8182C195.121 50.6061 196 50.3106 196.545 49.9318C197.106 49.5379 197.386 48.9848 197.386 48.2727V48.1591C197.386 46.9924 196.985 46.0909 196.182 45.4545C195.379 44.8182 194.295 44.5 192.932 44.5C191.462 44.5 190.28 44.8182 189.386 45.4545C188.492 46.0909 187.924 46.9697 187.682 48.0909L177.432 47.7273C177.735 45.6061 178.515 43.7121 179.773 42.0455C181.045 40.3636 182.788 39.0455 185 38.0909C187.227 37.1212 189.902 36.6364 193.023 36.6364C195.25 36.6364 197.303 36.9015 199.182 37.4318C201.061 37.947 202.697 38.7045 204.091 39.7045C205.485 40.6894 206.561 41.9015 207.318 43.3409C208.091 44.7803 208.477 46.4242 208.477 48.2727V72H198.023V67.1364H197.75C197.129 68.3182 196.333 69.3182 195.364 70.1364C194.409 70.9545 193.28 71.5682 191.977 71.9773C190.689 72.3864 189.235 72.5909 187.614 72.5909ZM191.045 65.3182C192.242 65.3182 193.318 65.0758 194.273 64.5909C195.242 64.1061 196.015 63.4394 196.591 62.5909C197.167 61.7273 197.455 60.7273 197.455 59.5909V56.2727C197.136 56.4394 196.75 56.5909 196.295 56.7273C195.856 56.8636 195.371 56.9924 194.841 57.1136C194.311 57.2348 193.765 57.3409 193.205 57.4318C192.644 57.5227 192.106 57.6061 191.591 57.6818C190.545 57.8485 189.652 58.1061 188.909 58.4545C188.182 58.803 187.621 59.2576 187.227 59.8182C186.848 60.3636 186.659 61.0152 186.659 61.7727C186.659 62.9242 187.068 63.803 187.886 64.4091C188.72 65.0152 189.773 65.3182 191.045 65.3182ZM231.568 72.6591C227.886 72.6591 224.727 71.9015 222.091 70.3864C219.47 68.8712 217.455 66.7652 216.045 64.0682C214.636 61.3561 213.932 58.2197 213.932 54.6591C213.932 51.0833 214.636 47.947 216.045 45.25C217.47 42.5379 219.492 40.4242 222.114 38.9091C224.75 37.3939 227.894 36.6364 231.545 36.6364C234.773 36.6364 237.583 37.2197 239.977 38.3864C242.386 39.553 244.265 41.2045 245.614 43.3409C246.977 45.4621 247.697 47.9545 247.773 50.8182H237.386C237.174 49.0303 236.568 47.6288 235.568 46.6136C234.583 45.5985 233.295 45.0909 231.705 45.0909C230.417 45.0909 229.288 45.4545 228.318 46.1818C227.348 46.8939 226.591 47.9545 226.045 49.3636C225.515 50.7576 225.25 52.4848 225.25 54.5455C225.25 56.6061 225.515 58.3485 226.045 59.7727C226.591 61.1818 227.348 62.25 228.318 62.9773C229.288 63.6894 230.417 64.0455 231.705 64.0455C232.735 64.0455 233.644 63.8258 234.432 63.3864C235.235 62.947 235.894 62.303 236.409 61.4545C236.924 60.5909 237.25 59.5455 237.386 58.3182H247.773C247.667 61.197 246.947 63.7121 245.614 65.8636C244.295 68.0152 242.439 69.6894 240.045 70.8864C237.667 72.0682 234.841 72.6591 231.568 72.6591ZM273.165 37.0909V45.2727H251.142V37.0909H273.165ZM255.756 28.7273H266.869V61.0227C266.869 61.7045 266.975 62.2576 267.188 62.6818C267.415 63.0909 267.741 63.3864 268.165 63.5682C268.589 63.7348 269.097 63.8182 269.688 63.8182C270.112 63.8182 270.559 63.7803 271.028 63.7045C271.513 63.6136 271.877 63.5379 272.119 63.4773L273.801 71.5C273.271 71.6515 272.521 71.8409 271.551 72.0682C270.597 72.2955 269.453 72.4394 268.119 72.5C265.513 72.6212 263.278 72.3182 261.415 71.5909C259.566 70.8485 258.15 69.697 257.165 68.1364C256.195 66.5758 255.725 64.6136 255.756 62.25V28.7273ZM315.108 56.9318V37.0909H326.199V72H315.608V65.5H315.244C314.472 67.6364 313.153 69.3333 311.29 70.5909C309.441 71.8333 307.206 72.4545 304.585 72.4545C302.206 72.4545 300.116 71.9091 298.312 70.8182C296.509 69.7273 295.108 68.2045 294.108 66.25C293.108 64.2803 292.6 61.9773 292.585 59.3409V37.0909H303.699V57.1591C303.714 59.053 304.214 60.5455 305.199 61.6364C306.184 62.7273 307.525 63.2727 309.222 63.2727C310.328 63.2727 311.32 63.0303 312.199 62.5455C313.093 62.0455 313.797 61.3258 314.312 60.3864C314.843 59.4318 315.108 58.2803 315.108 56.9318ZM363.75 47.75L353.545 48.0227C353.439 47.2955 353.152 46.6515 352.682 46.0909C352.212 45.5152 351.598 45.0682 350.841 44.75C350.098 44.4167 349.235 44.25 348.25 44.25C346.962 44.25 345.864 44.5076 344.955 45.0227C344.061 45.5379 343.621 46.2348 343.636 47.1136C343.621 47.7955 343.894 48.3864 344.455 48.8864C345.03 49.3864 346.053 49.7879 347.523 50.0909L354.25 51.3636C357.735 52.0303 360.326 53.1364 362.023 54.6818C363.735 56.2273 364.598 58.2727 364.614 60.8182C364.598 63.2121 363.886 65.2955 362.477 67.0682C361.083 68.8409 359.174 70.2197 356.75 71.2045C354.326 72.1742 351.553 72.6591 348.432 72.6591C343.447 72.6591 339.515 71.6364 336.636 69.5909C333.773 67.5303 332.136 64.7727 331.727 61.3182L342.705 61.0455C342.947 62.3182 343.576 63.2879 344.591 63.9545C345.606 64.6212 346.902 64.9545 348.477 64.9545C349.902 64.9545 351.061 64.6894 351.955 64.1591C352.848 63.6288 353.303 62.9242 353.318 62.0455C353.303 61.2576 352.955 60.6288 352.273 60.1591C351.591 59.6742 350.523 59.2955 349.068 59.0227L342.977 57.8636C339.477 57.2273 336.871 56.053 335.159 54.3409C333.447 52.6136 332.598 50.4167 332.614 47.75C332.598 45.4167 333.22 43.4242 334.477 41.7727C335.735 40.1061 337.523 38.8333 339.841 37.9545C342.159 37.0758 344.894 36.6364 348.045 36.6364C352.773 36.6364 356.5 37.6288 359.227 39.6136C361.955 41.5833 363.462 44.2955 363.75 47.75Z" fill="white"/>
</g>
<defs>
<filter id="filter0_d_2787_1282" x="11.0229" y="24.8184" width="357.591" height="71.8633" filterUnits="userSpaceOnUse" color-interpolation-filters="sRGB">
<feFlood flood-opacity="0" result="BackgroundImageFix"/>
<feColorMatrix in="SourceAlpha" type="matrix" values="0 0 0 0 0 0 0 0 0 0 0 0 0 0 0 0 0 0 127 0" result="hardAlpha"/>
<feOffset dx="-4" dy="16"/>
<feGaussianBlur stdDeviation="4"/>
<feComposite in2="hardAlpha" operator="out"/>
<feColorMatrix type="matrix" values="0 0 0 0 0 0 0 0 0 0 0 0 0 0 0 0 0 0 0.25 0"/>
<feBlend mode="normal" in2="BackgroundImageFix" result="effect1_dropShadow_2787_1282"/>
<feBlend mode="normal" in="SourceGraphic" in2="effect1_dropShadow_2787_1282" result="shape"/>
</filter>
</defs>
</svg>
