<svg width="25" height="25" viewBox="0 0 25 25" fill="none" xmlns="http://www.w3.org/2000/svg">
<g clip-path="url(#clip0_2787_1970)">
<path d="M12.5 2.663C15.704 2.663 16.084 2.675 17.35 2.733C20.602 2.881 22.121 4.424 22.269 7.652C22.327 8.917 22.338 9.297 22.338 12.501C22.338 15.706 22.326 16.085 22.269 17.35C22.12 20.575 20.605 22.121 17.35 22.269C16.084 22.327 15.706 22.339 12.5 22.339C9.296 22.339 8.916 22.327 7.651 22.269C4.391 22.12 2.88 20.57 2.732 17.349C2.674 16.084 2.662 15.705 2.662 12.5C2.662 9.296 2.675 8.917 2.732 7.651C2.881 4.424 4.396 2.88 7.651 2.732C8.917 2.675 9.296 2.663 12.5 2.663ZM12.5 0.5C9.241 0.5 8.833 0.514 7.553 0.572C3.195 0.772 0.773 3.19 0.573 7.552C0.514 8.833 0.5 9.241 0.5 12.5C0.5 15.759 0.514 16.168 0.572 17.448C0.772 21.806 3.19 24.228 7.552 24.428C8.833 24.486 9.241 24.5 12.5 24.5C15.759 24.5 16.168 24.486 17.448 24.428C21.802 24.228 24.23 21.81 24.427 17.448C24.486 16.168 24.5 15.759 24.5 12.5C24.5 9.241 24.486 8.833 24.428 7.553C24.232 3.199 21.811 0.773 17.449 0.573C16.168 0.514 15.759 0.5 12.5 0.5ZM12.5 6.338C9.097 6.338 6.338 9.097 6.338 12.5C6.338 15.903 9.097 18.663 12.5 18.663C15.903 18.663 18.662 15.904 18.662 12.5C18.662 9.097 15.903 6.338 12.5 6.338ZM12.5 16.5C10.291 16.5 8.5 14.71 8.5 12.5C8.5 10.291 10.291 8.5 12.5 8.5C14.709 8.5 16.5 10.291 16.5 12.5C16.5 14.71 14.709 16.5 12.5 16.5ZM18.906 4.655C18.11 4.655 17.465 5.3 17.465 6.095C17.465 6.89 18.11 7.535 18.906 7.535C19.701 7.535 20.345 6.89 20.345 6.095C20.345 5.3 19.701 4.655 18.906 4.655Z" fill="white"/>
</g>
<defs>
<clipPath id="clip0_2787_1970">
<rect width="24" height="24" fill="white" transform="translate(0.5 0.5)"/>
</clipPath>
</defs>
</svg>
