<svg width="61" height="56" viewBox="0 0 61 56" fill="none" xmlns="http://www.w3.org/2000/svg">
<path d="M37.2337 32.9854C42.8362 31.6411 46.2431 30.3285 52.9043 26.8032C63.4895 20.7965 56.9763 0.625905 41.8864 10.4797C35.1181 -6.26044 19.5823 7.38947 24.8812 18.463" stroke="black" stroke-width="3" stroke-linecap="round" stroke-linejoin="round"/>
<path d="M24.641 51.5025L6.40895 40.1672C-3.67907 33.1841 4.69985 13.849 18.8692 25.0166C27.1273 9.05793 42.7712 23.3221 36.5306 33.7325L24.641 51.5025Z" stroke="black" stroke-width="3" stroke-linecap="round" stroke-linejoin="round"/>
<path d="M8.96875 16.0049H12.9766" stroke="black" stroke-width="2" stroke-linecap="round"/>
<path d="M14.6953 8.26172C14.6953 9.70515 14.9816 11.084 14.9816 12.457" stroke="black" stroke-width="2" stroke-linecap="round"/>
<path d="M10.1133 10.5186C11.0341 11.4528 12.1344 12.1708 12.6898 13.4229" stroke="black" stroke-width="2" stroke-linecap="round"/>
<path d="M43.043 46.3301L42.5202 41.8507" stroke="black" stroke-width="2" stroke-linecap="round"/>
<path d="M49.1094 38.9209C47.8399 39.1092 46.5898 38.9691 45.3823 39.1482" stroke="black" stroke-width="2" stroke-linecap="round"/>
<path d="M47.7188 44.335C46.777 43.4277 46.0019 42.2916 44.8282 41.8342" stroke="black" stroke-width="2" stroke-linecap="round"/>
</svg>
