<svg width="184" height="162" viewBox="0 0 184 162" fill="none" xmlns="http://www.w3.org/2000/svg">
<path d="M113.37 95.2429C130.378 91.6048 140.698 87.9549 160.83 78.0335C192.805 61.0926 172.032 2.20999 126.509 30.1089C105.116 -18.8239 58.4104 20.0775 75.0651 52.4855" stroke="white" stroke-width="4" stroke-linecap="round" stroke-linejoin="round"/>
<path d="M74.1245 149.595L18.9384 117.328C-11.5704 97.407 14.6973 40.863 57.4992 72.7967C83.2736 26.0758 130.458 66.9578 111.041 97.468L74.1245 149.595Z" stroke="white" stroke-width="4" stroke-linecap="round" stroke-linejoin="round"/>
<path d="M28.168 43.9844H40.3069" stroke="white" stroke-width="3" stroke-linecap="round"/>
<path d="M45.5098 22.7217C45.5098 26.6842 46.3768 30.4696 46.3768 34.2386" stroke="white" stroke-width="3" stroke-linecap="round"/>
<path d="M31.6367 28.9229C34.4257 31.4875 37.7582 33.4587 39.4403 36.8961" stroke="white" stroke-width="3" stroke-linecap="round"/>
<path d="M131.375 127.236L129.792 114.939" stroke="white" stroke-width="3" stroke-linecap="round"/>
<path d="M149.745 106.896C145.9 107.412 142.114 107.028 138.456 107.519" stroke="white" stroke-width="3" stroke-linecap="round"/>
<path d="M145.537 121.758C142.685 119.267 140.337 116.148 136.782 114.893" stroke="white" stroke-width="3" stroke-linecap="round"/>
</svg>
