<svg width="99" height="85" viewBox="0 0 99 85" fill="none" xmlns="http://www.w3.org/2000/svg">
<path d="M60.9197 50.0153C69.9489 48.1337 75.425 46.2337 86.1031 41.0543C103.059 32.206 91.915 1.20862 67.781 15.7935C56.3257 -9.97366 31.5831 10.3939 40.4909 27.4639" stroke="white" stroke-width="4" stroke-linecap="round" stroke-linejoin="round"/>
<path d="M39.9668 78.6625L10.6882 61.7735C-5.49499 51.341 8.5469 21.5632 31.245 38.2955C45.0102 13.6849 70.0242 35.117 59.6611 51.1923L39.9668 78.6625Z" stroke="white" stroke-width="4" stroke-linecap="round" stroke-linejoin="round"/>
<path d="M15.1104 24.5596H21.5515" stroke="white" stroke-width="3" stroke-linecap="round"/>
<path d="M24.3125 13.5176C24.3125 15.5755 24.7726 17.5413 24.7726 19.4987" stroke="white" stroke-width="3" stroke-linecap="round"/>
<path d="M16.9512 16.7383C18.4311 18.0702 20.1994 19.0939 21.0919 20.879" stroke="white" stroke-width="3" stroke-linecap="round"/>
<path d="M69.873 67.7959L69.0329 61.4097" stroke="white" stroke-width="3" stroke-linecap="round"/>
<path d="M79.6211 57.2324C77.5808 57.5009 75.5717 57.3011 73.6311 57.5564" stroke="white" stroke-width="3" stroke-linecap="round"/>
<path d="M77.3877 64.9512C75.8741 63.6577 74.6285 62.038 72.7422 61.3859" stroke="white" stroke-width="3" stroke-linecap="round"/>
</svg>
